<svg width="489.143px" height="175.715px" viewBox="0 0 256 256" fill="none" xmlns="http://www.w3.org/2000/svg">
<mask id="mask0" mask-type="alpha" maskUnits="userSpaceOnUse" x="0" y="0" width="256" height="256">
<path fill-rule="evenodd" clip-rule="evenodd" d="M128 256C230.4 256 256 230.4 256 128C256 25.6 230.4 0 128 0C25.6 0 0 25.6 0 128C0 230.4 25.6 256 128 256Z" fill="black"/>
</mask>
<g mask="url(#mask0)">
<path d="M254 0H2C0.89543 0 0 0.89543 0 2V254C0 255.105 0.89543 256 2 256H254C255.105 256 256 255.105 256 254V2C256 0.89543 255.105 0 254 0Z" fill="url(#paint0_radial)"/>
<path d="M115.103 47L80 52.9604V208.085H115.103V149.397C115.103 132.127 124.261 121.429 131.892 121.429C138.76 121.429 140.744 128.307 140.744 138.699V208.085H176V133.656C176 110.12 167.148 94.9892 144.102 94.9892C133.266 94.9892 122.735 98.0458 115.103 104.923V47Z" fill="white"/>
</g>
<path d="M74.1523 107.547H71.4082C71.3822 107.977 71.3105 108.344 71.1934 108.65C71.0762 108.956 70.9167 109.207 70.7148 109.402C70.513 109.598 70.2689 109.741 69.9824 109.832C69.696 109.923 69.3737 109.969 69.0156 109.969C68.7487 109.969 68.5046 109.939 68.2832 109.881C68.0684 109.816 67.873 109.718 67.6973 109.588C67.5345 109.471 67.388 109.324 67.2578 109.148C67.1341 108.973 67.0267 108.771 66.9355 108.543C66.8053 108.211 66.7077 107.824 66.6426 107.381C66.584 106.932 66.5547 106.424 66.5547 105.857V103.924C66.5547 103.507 66.5742 103.12 66.6133 102.762C66.6523 102.397 66.7142 102.065 66.7988 101.766C66.9095 101.382 67.056 101.046 67.2383 100.76C67.4271 100.467 67.6549 100.242 67.9219 100.086C68.0781 99.9948 68.2474 99.9264 68.4297 99.8809C68.6185 99.8353 68.8203 99.8125 69.0352 99.8125C69.4388 99.8125 69.7839 99.8678 70.0703 99.9785C70.3633 100.083 70.6074 100.239 70.8027 100.447C70.9915 100.662 71.1348 100.929 71.2324 101.248C71.3366 101.567 71.4017 101.938 71.4277 102.361H74.1621C74.097 101.619 73.9408 100.952 73.6934 100.359C73.446 99.7669 73.1074 99.2656 72.6777 98.8555C72.248 98.4453 71.7272 98.1296 71.1152 97.9082C70.5098 97.6868 69.8164 97.5762 69.0352 97.5762C68.5078 97.5762 68.013 97.6445 67.5508 97.7812C67.0951 97.9115 66.6751 98.1003 66.291 98.3477C65.8613 98.6406 65.4772 98.9987 65.1387 99.4219C64.8001 99.8451 64.5267 100.327 64.3184 100.867C64.1361 101.31 63.9993 101.792 63.9082 102.312C63.8171 102.827 63.7715 103.37 63.7715 103.943V105.857C63.7715 106.469 63.8203 107.049 63.918 107.596C64.0221 108.143 64.1686 108.644 64.3574 109.1C64.5527 109.555 64.7904 109.972 65.0703 110.35C65.3568 110.727 65.6823 111.049 66.0469 111.316C66.444 111.603 66.89 111.824 67.3848 111.98C67.8861 112.13 68.4297 112.205 69.0156 112.205C69.7578 112.205 70.4349 112.098 71.0469 111.883C71.6589 111.661 72.1862 111.349 72.6289 110.945C73.0716 110.542 73.4232 110.053 73.6836 109.48C73.9505 108.908 74.1068 108.263 74.1523 107.547ZM73.752 121.781H71.0273L71.0176 131.205C71.0111 131.667 70.9622 132.074 70.8711 132.426C70.7799 132.777 70.6432 133.07 70.4609 133.305C70.2917 133.533 70.0768 133.705 69.8164 133.822C69.5625 133.933 69.2695 133.988 68.9375 133.988C68.6315 133.988 68.3613 133.936 68.127 133.832C67.8926 133.721 67.694 133.559 67.5312 133.344C67.3555 133.109 67.222 132.813 67.1309 132.455C67.0462 132.097 67.0007 131.68 66.9941 131.205L66.9844 121.781H64.2402L64.2305 131.205C64.2305 131.999 64.3411 132.709 64.5625 133.334C64.7904 133.952 65.1094 134.473 65.5195 134.896C65.9297 135.32 66.4212 135.642 66.9941 135.863C67.5736 136.085 68.2214 136.195 68.9375 136.195C69.6992 136.195 70.3763 136.085 70.9688 135.863C71.5677 135.642 72.0755 135.316 72.4922 134.887C72.9023 134.464 73.2148 133.943 73.4297 133.324C73.651 132.706 73.7617 131.999 73.7617 131.205L73.752 121.781ZM74.1523 155.547H71.4082C71.3822 155.977 71.3105 156.344 71.1934 156.65C71.0762 156.956 70.9167 157.207 70.7148 157.402C70.513 157.598 70.2689 157.741 69.9824 157.832C69.696 157.923 69.3737 157.969 69.0156 157.969C68.7487 157.969 68.5046 157.939 68.2832 157.881C68.0684 157.816 67.873 157.718 67.6973 157.588C67.5345 157.471 67.388 157.324 67.2578 157.148C67.1341 156.973 67.0267 156.771 66.9355 156.543C66.8053 156.211 66.7077 155.824 66.6426 155.381C66.584 154.932 66.5547 154.424 66.5547 153.857V151.924C66.5547 151.507 66.5742 151.12 66.6133 150.762C66.6523 150.397 66.7142 150.065 66.7988 149.766C66.9095 149.382 67.056 149.046 67.2383 148.76C67.4271 148.467 67.6549 148.242 67.9219 148.086C68.0781 147.995 68.2474 147.926 68.4297 147.881C68.6185 147.835 68.8203 147.812 69.0352 147.812C69.4388 147.812 69.7839 147.868 70.0703 147.979C70.3633 148.083 70.6074 148.239 70.8027 148.447C70.9915 148.662 71.1348 148.929 71.2324 149.248C71.3366 149.567 71.4017 149.938 71.4277 150.361H74.1621C74.097 149.619 73.9408 148.952 73.6934 148.359C73.446 147.767 73.1074 147.266 72.6777 146.855C72.248 146.445 71.7272 146.13 71.1152 145.908C70.5098 145.687 69.8164 145.576 69.0352 145.576C68.5078 145.576 68.013 145.645 67.5508 145.781C67.0951 145.911 66.6751 146.1 66.291 146.348C65.8613 146.641 65.4772 146.999 65.1387 147.422C64.8001 147.845 64.5267 148.327 64.3184 148.867C64.1361 149.31 63.9993 149.792 63.9082 150.312C63.8171 150.827 63.7715 151.37 63.7715 151.943V153.857C63.7715 154.469 63.8203 155.049 63.918 155.596C64.0221 156.143 64.1686 156.644 64.3574 157.1C64.5527 157.555 64.7904 157.972 65.0703 158.35C65.3568 158.727 65.6823 159.049 66.0469 159.316C66.444 159.603 66.89 159.824 67.3848 159.98C67.8861 160.13 68.4297 160.205 69.0156 160.205C69.7578 160.205 70.4349 160.098 71.0469 159.883C71.6589 159.661 72.1862 159.349 72.6289 158.945C73.0716 158.542 73.4232 158.053 73.6836 157.48C73.9505 156.908 74.1068 156.263 74.1523 155.547ZM73.0293 177.77V175.602H67.1895V172.018H73.9863V169.781H64.4355V184H74.0156V181.783H67.1895V177.77H73.0293ZM68.5176 202.16L72.0332 208H75.2949L70.334 200.07L75.1191 193.781H71.7598L68.3027 198.557L67.0137 200.295V193.781H64.2598V208H67.0137V203.811L68.5176 202.16Z" fill="white"/>
<defs>
<radialGradient id="paint0_radial" cx="0" cy="0" r="1" gradientUnits="userSpaceOnUse" gradientTransform="rotate(58.515) scale(245.082)">
<stop stop-color="#FF8C37"/>
<stop offset="1" stop-color="#EC3750"/>
</radialGradient>
</defs>
</svg>
